<svg width="95" height="48" viewBox="0 0 95 48" fill="none" xmlns="http://www.w3.org/2000/svg">
<rect width="95" height="48.0007" rx="6" fill="#0D9676" fill-opacity="0.01"/>
<path d="M12.4788 8.16008C10.7328 8.94738 11.0129 11.5307 12.8906 11.9489C14.7436 12.359 16.0366 10.2103 14.8671 8.68495C14.3895 8.06167 13.2529 7.80744 12.4788 8.16008Z" fill="white"/>
<path d="M19.9788 8.16008C18.2328 8.94738 18.5129 11.5307 20.3906 11.9489C22.2436 12.359 23.5366 10.2103 22.3671 8.68495C21.8895 8.06167 20.7529 7.80744 19.9788 8.16008Z" fill="white"/>
<path d="M27.4788 8.16008C25.7328 8.94738 26.0129 11.5307 27.8906 11.9489C29.7436 12.359 31.0366 10.2103 29.8671 8.68495C29.3895 8.06167 28.2529 7.80744 27.4788 8.16008Z" fill="#0D9676" fill-opacity="0.5"/>
<path d="M34.9788 8.16008C33.2328 8.94738 33.5129 11.5307 35.3906 11.9489C37.2436 12.359 38.5366 10.2103 37.3671 8.68495C36.8895 8.06167 35.7529 7.80744 34.9788 8.16008Z" fill="#0D9676" fill-opacity="0.1"/>
<path d="M11 26.8054V40.0007H13.0602H15.1205V26.8054V13.6101H13.0602H11V26.8054Z" fill="white"/>
<path d="M22.0327 15.6636L22.0579 17.7257L27.2884 17.7681L32.5104 17.8105L25.9597 28.6722C22.3522 34.6462 19.3418 39.6358 19.2745 39.7631L19.1484 40.0007H29.3738H39.5909V37.9217V35.8427H33.0654C27.877 35.8427 26.5484 35.8172 26.582 35.7324C26.5988 35.6814 29.5841 30.7258 33.2 24.7264C36.8159 18.727 39.8011 13.7713 39.8179 13.7119C39.8516 13.6355 38.0436 13.6101 30.9379 13.6101H22.0159L22.0327 15.6636Z" fill="white"/>
<path d="M51.4477 13.7289C46.007 14.6962 41.8614 18.676 40.6757 24.073C40.457 25.0658 40.3645 27.4163 40.5075 28.5025C41.0036 32.3041 43.0807 35.6475 46.3266 37.8368C47.6889 38.7617 49.3539 39.4491 51.0693 39.8055C52.1373 40.0176 54.8786 40.0176 55.9382 39.8055C57.6284 39.4576 59.3018 38.7617 60.7734 37.7944L61.7068 37.1834V32.1429V27.1024H58.9907H56.2745L55.2655 28.9438L54.2564 30.7937L55.8793 30.8191L57.5023 30.8361V32.8642V34.8838L57.023 35.1044C55.3327 35.8596 53.1968 36.0463 51.3973 35.5966C46.8143 34.4595 43.8711 29.9027 44.6784 25.21C45.3259 21.4509 48.4541 18.3875 52.1961 17.8444C53.6845 17.6323 55.6439 17.8784 56.9473 18.4384C57.1743 18.5403 57.3761 18.6082 57.393 18.5827C57.4434 18.5403 59.1841 14.9593 59.1841 14.9169C59.1841 14.7811 57.2248 14.0853 56.1989 13.8477C55.2234 13.627 52.4232 13.5592 51.4477 13.7289Z" fill="white"/>
<path d="M65.5918 23.1735C65.617 32.703 65.617 32.7454 65.802 33.3903C66.7523 36.7676 69.2498 38.9994 72.975 39.8055C73.9925 40.0261 76.5909 40.0177 77.6 39.797C81.7709 38.8806 84.4702 36.0463 84.9159 32.109C84.9664 31.6847 85 27.7134 85 22.4946V13.6101H82.8977H80.7955V22.7153C80.7955 30.607 80.7786 31.8883 80.6693 32.3211C80.2825 33.8316 79.3911 34.7735 77.7682 35.3844C76.7927 35.7578 75.9434 35.8766 74.8418 35.8172C72.3948 35.6814 70.6793 34.5953 69.9309 32.7199L69.7375 32.2362L69.7123 22.9189L69.687 13.6101H67.6268H65.5666L65.5918 23.1735Z" fill="white"/>
</svg>
