<svg width="28" height="20" viewBox="0 0 28 20" fill="none" xmlns="http://www.w3.org/2000/svg">
<rect y="0.000671387" width="28" height="20" rx="2" fill="white"/>
<mask id="mask0_166_2771" style="mask-type:luminance" maskUnits="userSpaceOnUse" x="0" y="0" width="28" height="21">
<rect y="0.000671387" width="28" height="20" rx="2" fill="white"/>
</mask>
<g mask="url(#mask0_166_2771)">
<path fill-rule="evenodd" clip-rule="evenodd" d="M28 0.000671387H0V1.334H28V0.000671387ZM28 2.66734H0V4.00067H28V2.66734ZM0 5.334H28V6.66734H0V5.334ZM28 8.00067H0V9.334H28V8.00067ZM0 10.6673H28V12.0007H0V10.6673ZM28 13.334H0V14.6673H28V13.334ZM0 16.0007H28V17.334H0V16.0007ZM28 18.6673H0V20.0007H28V18.6673Z" fill="#D02F44"/>
<rect y="0.000671387" width="12" height="9.33333" fill="#46467F"/>
<g filter="url(#filter0_d_166_2771)">
<path fill-rule="evenodd" clip-rule="evenodd" d="M2.66671 2.00065C2.66671 2.36884 2.36823 2.66732 2.00004 2.66732C1.63185 2.66732 1.33337 2.36884 1.33337 2.00065C1.33337 1.63246 1.63185 1.33398 2.00004 1.33398C2.36823 1.33398 2.66671 1.63246 2.66671 2.00065ZM5.33337 2.00065C5.33337 2.36884 5.0349 2.66732 4.66671 2.66732C4.29852 2.66732 4.00004 2.36884 4.00004 2.00065C4.00004 1.63246 4.29852 1.33398 4.66671 1.33398C5.0349 1.33398 5.33337 1.63246 5.33337 2.00065ZM7.33337 2.66732C7.70156 2.66732 8.00004 2.36884 8.00004 2.00065C8.00004 1.63246 7.70156 1.33398 7.33337 1.33398C6.96518 1.33398 6.66671 1.63246 6.66671 2.00065C6.66671 2.36884 6.96518 2.66732 7.33337 2.66732ZM10.6667 2.00065C10.6667 2.36884 10.3682 2.66732 10 2.66732C9.63185 2.66732 9.33337 2.36884 9.33337 2.00065C9.33337 1.63246 9.63185 1.33398 10 1.33398C10.3682 1.33398 10.6667 1.63246 10.6667 2.00065ZM3.33337 4.00065C3.70156 4.00065 4.00004 3.70217 4.00004 3.33398C4.00004 2.96579 3.70156 2.66732 3.33337 2.66732C2.96518 2.66732 2.66671 2.96579 2.66671 3.33398C2.66671 3.70217 2.96518 4.00065 3.33337 4.00065ZM6.66671 3.33398C6.66671 3.70217 6.36823 4.00065 6.00004 4.00065C5.63185 4.00065 5.33337 3.70217 5.33337 3.33398C5.33337 2.96579 5.63185 2.66732 6.00004 2.66732C6.36823 2.66732 6.66671 2.96579 6.66671 3.33398ZM8.66671 4.00065C9.0349 4.00065 9.33337 3.70217 9.33337 3.33398C9.33337 2.96579 9.0349 2.66732 8.66671 2.66732C8.29852 2.66732 8.00004 2.96579 8.00004 3.33398C8.00004 3.70217 8.29852 4.00065 8.66671 4.00065ZM10.6667 4.66732C10.6667 5.03551 10.3682 5.33398 10 5.33398C9.63185 5.33398 9.33337 5.03551 9.33337 4.66732C9.33337 4.29913 9.63185 4.00065 10 4.00065C10.3682 4.00065 10.6667 4.29913 10.6667 4.66732ZM7.33337 5.33398C7.70156 5.33398 8.00004 5.03551 8.00004 4.66732C8.00004 4.29913 7.70156 4.00065 7.33337 4.00065C6.96518 4.00065 6.66671 4.29913 6.66671 4.66732C6.66671 5.03551 6.96518 5.33398 7.33337 5.33398ZM5.33337 4.66732C5.33337 5.03551 5.0349 5.33398 4.66671 5.33398C4.29852 5.33398 4.00004 5.03551 4.00004 4.66732C4.00004 4.29913 4.29852 4.00065 4.66671 4.00065C5.0349 4.00065 5.33337 4.29913 5.33337 4.66732ZM2.00004 5.33398C2.36823 5.33398 2.66671 5.03551 2.66671 4.66732C2.66671 4.29913 2.36823 4.00065 2.00004 4.00065C1.63185 4.00065 1.33337 4.29913 1.33337 4.66732C1.33337 5.03551 1.63185 5.33398 2.00004 5.33398ZM4.00004 6.00065C4.00004 6.36884 3.70156 6.66732 3.33337 6.66732C2.96518 6.66732 2.66671 6.36884 2.66671 6.00065C2.66671 5.63246 2.96518 5.33398 3.33337 5.33398C3.70156 5.33398 4.00004 5.63246 4.00004 6.00065ZM6.00004 6.66732C6.36823 6.66732 6.66671 6.36884 6.66671 6.00065C6.66671 5.63246 6.36823 5.33398 6.00004 5.33398C5.63185 5.33398 5.33337 5.63246 5.33337 6.00065C5.33337 6.36884 5.63185 6.66732 6.00004 6.66732ZM9.33337 6.00065C9.33337 6.36884 9.0349 6.66732 8.66671 6.66732C8.29852 6.66732 8.00004 6.36884 8.00004 6.00065C8.00004 5.63246 8.29852 5.33398 8.66671 5.33398C9.0349 5.33398 9.33337 5.63246 9.33337 6.00065ZM10 8.00065C10.3682 8.00065 10.6667 7.70217 10.6667 7.33398C10.6667 6.96579 10.3682 6.66732 10 6.66732C9.63185 6.66732 9.33337 6.96579 9.33337 7.33398C9.33337 7.70217 9.63185 8.00065 10 8.00065ZM8.00004 7.33398C8.00004 7.70217 7.70156 8.00065 7.33337 8.00065C6.96518 8.00065 6.66671 7.70217 6.66671 7.33398C6.66671 6.96579 6.96518 6.66732 7.33337 6.66732C7.70156 6.66732 8.00004 6.96579 8.00004 7.33398ZM4.66671 8.00065C5.0349 8.00065 5.33337 7.70217 5.33337 7.33398C5.33337 6.96579 5.0349 6.66732 4.66671 6.66732C4.29852 6.66732 4.00004 6.96579 4.00004 7.33398C4.00004 7.70217 4.29852 8.00065 4.66671 8.00065ZM2.66671 7.33398C2.66671 7.70217 2.36823 8.00065 2.00004 8.00065C1.63185 8.00065 1.33337 7.70217 1.33337 7.33398C1.33337 6.96579 1.63185 6.66732 2.00004 6.66732C2.36823 6.66732 2.66671 6.96579 2.66671 7.33398Z" fill="url(#paint0_linear_166_2771)"/>
</g>
</g>
<defs>
<filter id="filter0_d_166_2771" x="1.33337" y="1.33398" width="9.33337" height="7.66669" filterUnits="userSpaceOnUse" color-interpolation-filters="sRGB">
<feFlood flood-opacity="0" result="BackgroundImageFix"/>
<feColorMatrix in="SourceAlpha" type="matrix" values="0 0 0 0 0 0 0 0 0 0 0 0 0 0 0 0 0 0 127 0" result="hardAlpha"/>
<feOffset dy="1"/>
<feColorMatrix type="matrix" values="0 0 0 0 0 0 0 0 0 0 0 0 0 0 0 0 0 0 0.06 0"/>
<feBlend mode="normal" in2="BackgroundImageFix" result="effect1_dropShadow_166_2771"/>
<feBlend mode="normal" in="SourceGraphic" in2="effect1_dropShadow_166_2771" result="shape"/>
</filter>
<linearGradient id="paint0_linear_166_2771" x1="1.33337" y1="1.33398" x2="1.33337" y2="8.00065" gradientUnits="userSpaceOnUse">
<stop stop-color="white"/>
<stop offset="1" stop-color="#F0F0F0"/>
</linearGradient>
</defs>
</svg>
